<?xml version="1.0" encoding="UTF-8" standalone="no"?>
<!-- Created with Inkscape (http://www.inkscape.org/) -->

<svg
   version="1.1"
   id="svg50240"
   xml:space="preserve"
   width="800"
   height="800"
   viewBox="0 0 800 800"
   sodipodi:docname="Scottish-flag-heart-symbol.svg"
   inkscape:version="1.1.2 (b8e25be833, 2022-02-05)"
   xmlns:inkscape="http://www.inkscape.org/namespaces/inkscape"
   xmlns:sodipodi="http://sodipodi.sourceforge.net/DTD/sodipodi-0.dtd"
   xmlns="http://www.w3.org/2000/svg"
   xmlns:svg="http://www.w3.org/2000/svg"
   xmlns:rdf="http://www.w3.org/1999/02/22-rdf-syntax-ns#"
   xmlns:cc="http://creativecommons.org/ns#"
   xmlns:dc="http://purl.org/dc/elements/1.1/"><metadata
     id="metadata50246"><rdf:RDF><cc:Work
         rdf:about=""><dc:format>image/svg+xml</dc:format><dc:type
           rdf:resource="http://purl.org/dc/dcmitype/StillImage" /><dc:title /></cc:Work></rdf:RDF></metadata><defs
     id="defs50244"><clipPath
       clipPathUnits="userSpaceOnUse"
       id="clipPath50256"><path
         d="M 0,600 H 600 V 0 H 0 Z"
         id="path50254"
         inkscape:connector-curvature="0" /></clipPath><clipPath
       clipPathUnits="userSpaceOnUse"
       id="clipPath50256-2"><path
         d="M 0,600 H 600 V 0 H 0 Z"
         id="path50254-4"
         inkscape:connector-curvature="0" /></clipPath></defs><sodipodi:namedview
     pagecolor="#ffffff"
     bordercolor="#666666"
     borderopacity="1"
     objecttolerance="10"
     gridtolerance="10"
     guidetolerance="10"
     inkscape:pageopacity="0"
     inkscape:pageshadow="2"
     inkscape:window-width="1920"
     inkscape:window-height="1001"
     id="namedview50242"
     showgrid="false"
     inkscape:zoom="0.295"
     inkscape:cx="398.30508"
     inkscape:cy="669.49153"
     inkscape:window-x="-9"
     inkscape:window-y="-9"
     inkscape:window-maximized="1"
     inkscape:current-layer="g50248"
     inkscape:pagecheckerboard="0" /><g
     id="g50248"
     inkscape:groupmode="layer"
     inkscape:label="I-love-Scotland-publicdomainvectors.org"
     transform="matrix(1.3333333,0,0,-1.3333333,0,800)"><g
       id="g50250"
       transform="matrix(1.1124408,0,0,1.2503088,-29.616553,-139.24373)"><g
         id="g50252"
         clip-path="url(#clipPath50256)"><path
           d="m 243.513,471.345 c 1.243,0.805 1.924,2.157 1.924,3.539 0,0.751 -0.201,1.51 -0.621,2.196 -1.193,1.95 -3.72,2.591 -5.698,1.449 0,0 -17.978,-10.378 -22.332,-12.892 8.121,5.134 31.612,19.985 31.612,19.985 1.268,0.801 1.963,2.167 1.963,3.566 0,0.742 -0.195,1.494 -0.606,2.175 -1.189,1.963 -3.726,2.615 -5.714,1.47 0,0 -4.824,-2.788 -5.074,-2.933 0.11,0.382 0.291,0.747 0.291,1.145 0,0.737 -0.193,1.485 -0.6,2.163 -1.182,1.971 -3.728,2.632 -5.72,1.482 0,0 -34.297,-19.802 -58.819,-33.959 23.123,15.011 55.903,36.29 55.903,36.29 1.241,0.804 1.918,2.155 1.918,3.535 0,0.751 -0.201,1.511 -0.623,2.199 -1.191,1.947 -3.717,2.588 -5.696,1.447 0,0 -23.801,-13.741 -33.796,-19.512 3.709,2.383 18.72,12.029 18.72,12.029 1.25,0.803 1.935,2.159 1.935,3.546 0,0.749 -0.199,1.506 -0.616,2.19 -1.191,1.952 -3.722,2.599 -5.703,1.455 0,0 -9.699,-5.599 -11.199,-6.465 0.184,0.12 3.681,2.381 3.681,2.381 1.244,0.804 1.925,2.157 1.925,3.541 0,0.729 -0.199,1.465 -0.594,2.136 h -8.338 c -6.345,-3.663 -22.939,-13.243 -34.538,-19.942 7.632,5.175 23.956,16.243 23.956,16.243 1.197,0.813 1.849,2.139 1.849,3.49 0,0.07 -0.026,0.14 -0.029,0.209 h -12.242 c -8.476,-4.894 -24.664,-14.24 -39.619,-22.873 10.647,7.635 26.58,19.063 26.58,19.063 1.144,0.822 1.758,2.112 1.758,3.428 0,0.129 -0.043,0.254 -0.055,0.382 h -11.915 c -4.971,-2.87 -12.402,-7.162 -18.912,-10.92 2.514,2.006 8.945,7.135 8.945,7.135 1.04,0.83 1.586,2.053 1.586,3.296 0,0.163 -0.052,0.324 -0.072,0.489 h -11.713 l -23.101,-13.337 84.376,-56.443 c 24.813,16.063 55.023,35.622 55.023,35.622"
           style="fill:#1476c6;fill-opacity:1;fill-rule:nonzero;stroke:none"
           id="path50258"
           inkscape:connector-curvature="0" /><path
           d="m 480.105,487.963 c -1.223,1.833 -3.663,2.434 -5.594,1.318 0,0 -60.426,-34.886 -94.895,-54.786 31.129,18.984 88.351,53.885 88.351,53.885 1.3,0.793 2.018,2.178 2.018,3.6 0,0.732 -0.19,1.473 -0.588,2.146 -0.709,1.191 -1.93,1.823 -3.212,1.956 0.49,0.71 0.826,1.5 0.826,2.356 0,0.726 -0.188,1.462 -0.582,2.131 -1.172,1.995 -3.733,2.67 -5.738,1.514 0,0 -97.784,-56.458 -195.567,-112.913 14.04,8.824 45.223,28.422 45.223,28.422 1.27,0.8 1.97,2.169 1.97,3.571 0,0.74 -0.195,1.49 -0.605,2.17 -1.185,1.967 -3.726,2.622 -5.714,1.473 0,0 -14.18,-8.188 -16.284,-9.399 0.431,0.266 7,4.357 7,4.357 1.281,0.797 1.986,2.172 1.986,3.581 0,0.737 -0.195,1.484 -0.599,2.162 -1.185,1.972 -3.729,2.63 -5.721,1.481 0,0 -30.73,-17.742 -44.775,-25.851 10.816,6.825 37.805,23.86 37.805,23.86 1.268,0.801 1.965,2.169 1.965,3.567 0,0.742 -0.196,1.495 -0.606,2.174 -1.188,1.964 -3.726,2.618 -5.714,1.47 0,0 -23.178,-13.382 -46.865,-27.056 l 60.879,-40.727 z"
           style="fill:#1476c6;fill-opacity:1;fill-rule:nonzero;stroke:none"
           id="path50260"
           inkscape:connector-curvature="0" /><path
           d="m 65.995,433.97 c -5.506,-3.734 -10.163,-6.889 -10.163,-6.889 -1.198,-0.813 -1.85,-2.14 -1.85,-3.493 0,-0.763 0.209,-1.538 0.644,-2.233 0.996,-1.587 2.86,-2.144 4.592,-1.703 -0.938,-0.606 -8.451,-5.466 -8.451,-5.466 -1.244,-0.805 -1.925,-2.158 -1.925,-3.541 0,-0.751 0.201,-1.51 0.62,-2.196 1.193,-1.948 3.721,-2.591 5.7,-1.448 0,0 1.621,0.935 1.656,0.955 -3.683,-2.367 -18.646,-11.979 -18.646,-11.979 -1.25,-0.804 -1.935,-2.162 -1.935,-3.548 0,-0.747 0.198,-1.504 0.616,-2.189 1.191,-1.955 3.722,-2.6 5.703,-1.456 0,0 29.527,17.047 47.532,27.442 -23.152,-15.03 -55.944,-36.318 -55.944,-36.318 -1.241,-0.804 -1.92,-2.156 -1.92,-3.537 0,-0.75 0.2,-1.511 0.62,-2.198 1.194,-1.946 3.722,-2.588 5.7,-1.447 0,0 3.524,2.036 3.656,2.112 -0.111,-0.382 -0.292,-0.749 -0.292,-1.149 0,-0.737 0.194,-1.484 0.598,-2.162 1.182,-1.972 3.729,-2.633 5.721,-1.483 0,0 15.27,8.817 18.317,10.577 -8.089,-5.115 -31.547,-19.945 -31.547,-19.945 -1.268,-0.801 -1.962,-2.167 -1.962,-3.566 0,-0.742 0.195,-1.493 0.607,-2.175 1.187,-1.963 3.725,-2.614 5.712,-1.47 0,0 35.372,20.425 60.841,35.13 -25.584,-16.567 -60.499,-39.171 -60.499,-39.171 -1.244,-0.804 -1.925,-2.157 -1.925,-3.541 0,-0.749 0.2,-1.508 0.622,-2.194 1.191,-1.95 3.718,-2.591 5.698,-1.449 0,0 4.747,2.74 4.965,2.867 -0.191,-0.489 -0.386,-0.982 -0.386,-1.508 0,-0.737 0.193,-1.481 0.598,-2.158 0.362,-0.606 0.877,-1.053 1.44,-1.396 -0.079,-0.049 -2.919,-1.787 -2.919,-1.787 -1.299,-0.794 -2.016,-2.179 -2.016,-3.597 0,-0.733 0.19,-1.475 0.592,-2.149 1.178,-1.981 3.731,-2.648 5.728,-1.494 0,0 38.055,21.971 66.616,38.46 C 93.82,353.417 58.866,330.86 58.866,330.86 c -1.245,-0.804 -1.928,-2.158 -1.928,-3.544 0,-0.748 0.201,-1.507 0.618,-2.191 1.192,-1.95 3.723,-2.595 5.7,-1.454 0,0 29.373,16.96 42.877,24.756 -21.258,-13.477 -56.87,-36.055 -56.87,-36.055 -1.263,-0.802 -1.958,-2.165 -1.958,-3.563 0,-0.742 0.197,-1.494 0.609,-2.175 1.188,-1.962 3.725,-2.613 5.71,-1.467 0,0 40.364,23.305 70.888,40.927 C 96.454,328.085 58.34,303.621 58.34,303.621 c -1.251,-0.805 -1.937,-2.161 -1.937,-3.549 0,-0.748 0.199,-1.505 0.616,-2.189 1.189,-1.951 3.724,-2.6 5.704,-1.455 0,0 26.994,15.584 37.502,21.653 -10.849,-6.85 -37.87,-23.904 -37.87,-23.904 -1.268,-0.799 -1.965,-2.167 -1.965,-3.568 0,-0.74 0.197,-1.492 0.607,-2.171 1.187,-1.965 3.726,-2.619 5.712,-1.472 0,0 10.274,5.933 11.337,6.546 -0.434,-0.27 -7.042,-4.386 -7.042,-4.386 -1.28,-0.797 -1.988,-2.173 -1.988,-3.582 0,-0.736 0.194,-1.483 0.602,-2.161 1.182,-1.972 3.727,-2.63 5.718,-1.482 0,0 28.858,16.663 40.331,23.287 -14.014,-8.809 -45.177,-28.394 -45.177,-28.394 -1.27,-0.8 -1.971,-2.169 -1.971,-3.57 0,-0.742 0.196,-1.492 0.606,-2.171 1.185,-1.967 3.725,-2.621 5.713,-1.473 0,0 9.368,5.407 9.853,5.687 -0.088,-0.346 -0.267,-0.668 -0.267,-1.031 0,-0.723 0.188,-1.461 0.583,-2.131 1.172,-1.993 3.734,-2.668 5.736,-1.511 0,0 50.765,29.306 74.238,42.859 -31.18,-19.017 -88.437,-53.939 -88.437,-53.939 -1.299,-0.793 -2.019,-2.179 -2.019,-3.601 0,-0.731 0.191,-1.473 0.589,-2.145 1.178,-1.984 3.732,-2.652 5.73,-1.499 0,0 50.548,29.184 71.768,41.435 -19.387,-11.778 -67.582,-41.059 -67.582,-41.059 -1.303,-0.792 -2.024,-2.179 -2.024,-3.605 0,-0.73 0.189,-1.469 0.59,-2.143 1.174,-1.986 3.73,-2.655 5.729,-1.5 0,0 70.011,40.419 119.048,68.73 -42.077,-25.719 -106.548,-65.126 -106.548,-65.126 -1.3,-0.794 -2.018,-2.179 -2.018,-3.6 0,-0.731 0.191,-1.472 0.593,-2.146 1.178,-1.984 3.73,-2.65 5.726,-1.497 0,0 15.052,8.689 35.573,20.538 l 90.716,60.564 z"
           style="fill:#1476c6;fill-opacity:1;fill-rule:nonzero;stroke:none"
           id="path50262"
           inkscape:connector-curvature="0" /><path
           d="m 489.486,235.02 c 9.195,6.126 24.941,16.615 24.941,16.615 1.217,0.81 1.877,2.146 1.877,3.51 0,0.759 -0.203,1.528 -0.633,2.219 -1.2,1.931 -3.716,2.563 -5.686,1.425 0,0 -11.15,-6.438 -12.774,-7.376 10.076,6.395 35.361,22.44 35.361,22.44 1.264,0.799 1.956,2.165 1.956,3.559 0,0.744 -0.197,1.497 -0.61,2.179 -1.189,1.96 -3.724,2.612 -5.71,1.465 0,0 -33.464,-19.321 -50.337,-29.064 25.062,15.811 64.705,40.824 64.705,40.824 1.27,0.8 1.968,2.167 1.968,3.566 0,0.742 -0.196,1.494 -0.608,2.174 -1.185,1.965 -3.726,2.618 -5.713,1.471 0,0 -4.719,-2.724 -4.895,-2.828 0.656,0.404 9.539,5.871 9.539,5.871 1.292,0.793 2.007,2.175 2.007,3.59 0,0.734 -0.19,1.478 -0.594,2.153 -1.179,1.98 -3.731,2.644 -5.724,1.492 0,0 -35.724,-20.625 -51.53,-29.749 21.638,13.464 62.337,38.788 62.337,38.788 1.28,0.798 1.988,2.172 1.988,3.581 0,0.737 -0.195,1.484 -0.601,2.162 -0.88,1.469 -2.506,2.108 -4.107,1.915 0.485,0.296 8.769,5.335 8.769,5.335 1.304,0.793 2.024,2.179 2.024,3.603 0,0.731 -0.189,1.47 -0.589,2.143 -1.043,1.761 -3.15,2.357 -5.011,1.695 0.815,0.494 11.66,7.09 11.66,7.09 1.304,0.79 2.025,2.178 2.025,3.603 0,0.729 -0.19,1.47 -0.587,2.142 -1.179,1.985 -3.733,2.657 -5.733,1.501 0,0 -2.993,-1.727 -3.047,-1.76 0.31,0.6 0.499,1.258 0.499,1.935 0,0.727 -0.192,1.464 -0.588,2.139 -1.174,1.988 -3.734,2.659 -5.732,1.504 0,0 -46.077,-26.604 -68.235,-39.396 27.564,16.938 77.975,47.916 77.975,47.916 1.294,0.793 2.01,2.176 2.01,3.592 0,0.733 -0.192,1.477 -0.596,2.153 -1.178,1.98 -3.729,2.644 -5.724,1.492 l -0.19,-0.109 c 0.274,0.568 0.467,1.179 0.467,1.811 0,0.728 -0.19,1.466 -0.585,2.139 -1.176,1.988 -3.734,2.66 -5.735,1.506 0,0 -46.995,-27.132 -69.576,-40.169 30.756,18.873 84.358,51.771 84.358,51.771 1.295,0.795 2.011,2.177 2.011,3.594 0,0.734 -0.191,1.477 -0.594,2.152 -1.181,1.98 -3.731,2.644 -5.725,1.493 0,0 -30.513,-17.615 -37.217,-21.485 2.648,1.603 22.319,13.542 22.319,13.542 1.306,0.791 2.03,2.18 2.03,3.605 0,0.729 -0.19,1.47 -0.59,2.141 -1.173,1.988 -3.732,2.658 -5.73,1.504 0,0 -60.403,-34.872 -101.221,-58.439 41.977,25.831 102.695,63.193 102.695,63.193 1.291,0.795 2.005,2.177 2.005,3.592 0,0.734 -0.192,1.478 -0.594,2.153 -1.179,1.979 -3.729,2.642 -5.724,1.49 0,0 -2.403,-1.385 -2.434,-1.403 0.16,0.097 5.488,3.314 5.488,3.314 1.31,0.791 2.034,2.184 2.034,3.61 0,0.729 -0.189,1.467 -0.586,2.138 -1.175,1.989 -3.732,2.662 -5.733,1.507 0,0 -43.881,-25.335 -60.511,-34.935 26.159,15.942 79.477,48.435 79.477,48.435 1.3,0.793 2.022,2.179 2.022,3.6 0,0.731 -0.193,1.472 -0.591,2.146 -1.178,1.985 -3.731,2.653 -5.729,1.498 0,0 -16.176,-9.337 -17.679,-10.206 0.669,0.772 1.141,1.675 1.141,2.681 0,0.727 -0.188,1.464 -0.586,2.135 -1.174,1.992 -3.731,2.665 -5.734,1.509 0,0 -15.137,-8.739 -16.495,-9.524 3.857,2.33 28.52,17.232 28.52,17.232 1.309,0.79 2.037,2.182 2.037,3.611 0,0.18 -0.05,0.361 -0.074,0.542 L 357.977,322.86 Z"
           style="fill:#1476c6;fill-opacity:1;fill-rule:nonzero;stroke:none"
           id="path50264"
           inkscape:connector-curvature="0" /><path
           d="m 357.958,173.03 c -10.084,-6.398 -35.375,-22.447 -35.375,-22.447 -1.265,-0.801 -1.959,-2.164 -1.959,-3.562 0,-0.743 0.198,-1.495 0.611,-2.175 1.188,-1.962 3.724,-2.614 5.709,-1.468 0,0 38.371,22.155 73.281,42.31 -7.345,-4.892 -24.552,-16.354 -24.552,-16.354 -1.217,-0.81 -1.879,-2.146 -1.879,-3.51 0,-0.759 0.205,-1.528 0.635,-2.22 1.199,-1.932 3.715,-2.562 5.684,-1.424 l 50.265,29.018 -135.513,90.1 -124.77,-83.117 c 1.009,-0.246 2.111,-0.125 3.083,0.427 -0.186,-0.112 -5.911,-3.571 -5.911,-3.571 -1.309,-0.79 -2.035,-2.182 -2.035,-3.61 0,-0.728 0.189,-1.464 0.585,-2.138 1.176,-1.989 3.734,-2.66 5.735,-1.505 0,0 64.298,37.121 110.583,63.843 C 240.194,225.82 179.497,188.47 179.497,188.47 c -1.293,-0.795 -2.007,-2.177 -2.007,-3.592 0,-0.733 0.193,-1.478 0.595,-2.152 1.18,-1.98 3.729,-2.643 5.725,-1.492 0,0 23.268,13.433 27.002,15.587 -2.704,-1.638 -22.568,-13.691 -22.568,-13.691 -1.303,-0.793 -2.027,-2.182 -2.027,-3.607 0,-0.728 0.191,-1.467 0.589,-2.141 1.175,-1.986 3.733,-2.657 5.73,-1.502 0,0 60.704,35.046 100.061,57.771 -30.725,-18.857 -84.31,-51.742 -84.31,-51.742 -1.293,-0.796 -2.009,-2.179 -2.009,-3.596 0,-0.732 0.192,-1.475 0.594,-2.15 1.093,-1.836 3.347,-2.441 5.262,-1.618 -0.324,-0.609 -0.51,-1.288 -0.51,-1.979 0,-0.729 0.189,-1.466 0.586,-2.139 1.175,-1.989 3.732,-2.661 5.733,-1.506 0,0 49.634,28.655 75.764,43.741 -27.591,-16.954 -78.018,-47.94 -78.018,-47.94 -1.293,-0.795 -2.008,-2.177 -2.008,-3.593 0,-0.733 0.192,-1.477 0.592,-2.152 1.182,-1.98 3.732,-2.644 5.727,-1.492 l 0.309,0.179 c -0.309,-0.6 -0.496,-1.258 -0.496,-1.933 0,-0.727 0.187,-1.466 0.585,-2.137 1.175,-1.99 3.732,-2.662 5.733,-1.507 0,0 13.999,8.082 15.33,8.85 -0.116,-0.071 -4.355,-2.646 -4.355,-2.646 -1.303,-0.791 -2.023,-2.18 -2.023,-3.604 0,-0.728 0.189,-1.469 0.589,-2.144 1.175,-1.984 3.732,-2.654 5.73,-1.501 0,0 1.67,0.964 1.688,0.976 -0.931,-0.814 -1.54,-1.904 -1.54,-3.099 0,-0.731 0.191,-1.471 0.589,-2.144 1.178,-1.984 3.733,-2.654 5.729,-1.499 0,0 48.993,28.284 80.527,46.49 -21.662,-13.481 -62.379,-38.817 -62.379,-38.817 -1.283,-0.798 -1.988,-2.172 -1.988,-3.58 0,-0.738 0.194,-1.484 0.598,-2.163 1.184,-1.973 3.729,-2.631 5.721,-1.482 0,0 9.502,5.486 10.241,5.914 -0.644,-0.398 -9.458,-5.819 -9.458,-5.819 -1.294,-0.795 -2.007,-2.175 -2.007,-3.592 0,-0.734 0.192,-1.476 0.595,-2.153 0.047,-0.08 0.112,-0.145 0.165,-0.221 h 7.758 c 9.618,5.551 48.974,28.275 78.834,45.515 -25.109,-15.844 -64.783,-40.871 -64.783,-40.871 -1.268,-0.801 -1.966,-2.17 -1.966,-3.568 0,-0.359 0.051,-0.721 0.145,-1.076 h 10.622 c 10.705,6.18 38.487,22.22 57.465,33.177"
           style="fill:#1476c6;fill-opacity:1;fill-rule:nonzero;stroke:none"
           id="path50266"
           inkscape:connector-curvature="0" /><path
           d="m 279.781,435.745 c 1.252,0.803 1.936,2.16 1.936,3.548 0,0.748 -0.197,1.504 -0.615,2.189 -1.19,1.953 -3.723,2.6 -5.703,1.456 0,0 -32.71,-18.885 -49.856,-28.785 21.238,13.465 56.842,36.037 56.842,36.037 1.264,0.8 1.959,2.165 1.959,3.56 0,0.745 -0.198,1.498 -0.611,2.18 -1.186,1.961 -3.724,2.613 -5.71,1.466 0,0 -35.117,-20.275 -65.448,-37.786 l 20.6,-13.78 c 23.491,15.078 46.606,29.915 46.606,29.915"
           style="fill:#1476c6;fill-opacity:1;fill-rule:nonzero;stroke:none"
           id="path50268"
           inkscape:connector-curvature="0" /><path
           d="m 266.315,454.707 c 1.246,0.805 1.929,2.157 1.929,3.543 0,0.75 -0.201,1.507 -0.619,2.191 -0.666,1.093 -1.777,1.663 -2.949,1.852 0.155,0.446 0.349,0.887 0.349,1.361 0,0.732 -0.192,1.474 -0.592,2.149 -0.639,1.072 -1.708,1.634 -2.844,1.856 0.136,0.086 3.814,2.358 3.814,2.358 1.287,0.795 1.998,2.173 1.998,3.587 0,0.736 -0.193,1.479 -0.597,2.158 -1.18,1.974 -3.729,2.637 -5.722,1.487 0,0 -37.983,-21.932 -72.285,-41.734 l 23.461,-15.693 c 24.194,15.614 54.057,34.885 54.057,34.885"
           style="fill:#1476c6;fill-opacity:1;fill-rule:nonzero;stroke:none"
           id="path50270"
           inkscape:connector-curvature="0" /><path
           d="m 56.732,439.721 c -1.144,-0.819 -1.757,-2.111 -1.757,-3.426 0,-0.783 0.218,-1.576 0.672,-2.281 1.219,-1.885 3.702,-2.488 5.646,-1.364 0,0 1.46,0.843 3.582,2.069 l -7.83,5.226 c -0.185,-0.132 -0.313,-0.224 -0.313,-0.224"
           style="fill:#1476c6;fill-opacity:1;fill-rule:nonzero;stroke:none"
           id="path50272"
           inkscape:connector-curvature="0" /><path
           d="m 430.378,191.198 60.623,34.999 c 2.016,1.162 2.705,3.74 1.541,5.753 -1.039,1.804 -3.191,2.419 -5.08,1.725 0.624,0.416 1.307,0.869 2.024,1.345 l -131.509,87.84 184.757,124.203 c -0.072,0.547 -0.216,1.09 -0.514,1.595 -1.175,1.989 -3.732,2.661 -5.733,1.506 0,0 -71.074,-41.033 -123.69,-71.41 53.514,32.786 124.679,76.389 124.679,76.389 1.296,0.794 2.013,2.179 2.013,3.597 0,0.731 -0.191,1.474 -0.593,2.15 -1.179,1.98 -3.73,2.645 -5.727,1.493 0,0 -12.435,-7.179 -13.262,-7.656 0.188,0.485 0.388,0.974 0.388,1.499 0,0.724 -0.189,1.461 -0.583,2.13 -1.173,1.994 -3.733,2.67 -5.738,1.513 0,0 -64.096,-37.007 -106.272,-61.355 51.002,31.224 120.877,74.004 120.877,74.004 1.297,0.795 2.015,2.177 2.015,3.597 0,0.733 -0.191,1.475 -0.593,2.149 -1.178,1.982 -3.73,2.648 -5.727,1.496 0,0 -70.634,-40.782 -121.557,-70.181 37.985,23.244 98.737,60.42 98.737,60.42 1.297,0.794 2.015,2.178 2.015,3.597 0,0.734 -0.191,1.474 -0.593,2.149 -1.177,1.982 -3.73,2.65 -5.727,1.496 0,0 -63.672,-36.761 -104.009,-60.049 42.099,25.731 106.581,65.147 106.581,65.147 1.3,0.794 2.017,2.179 2.017,3.599 0,0.73 -0.191,1.474 -0.592,2.147 -1.179,1.983 -3.73,2.649 -5.727,1.496 0,0 -56.738,-32.756 -84.208,-48.617 19.393,11.783 67.595,41.069 67.595,41.069 1.303,0.791 2.024,2.18 2.024,3.605 0,0.729 -0.189,1.468 -0.589,2.142 -0.04,0.066 -0.093,0.119 -0.136,0.183 L 295.069,364.425 234.19,405.152 c -7.029,-4.058 -14.098,-8.141 -20.624,-11.907 6.218,3.99 12.927,8.297 19.609,12.585 l -20.6,13.78 c -2.073,-1.196 -4.123,-2.382 -6.139,-3.545 1.887,1.218 3.839,2.477 5.822,3.757 l -23.461,15.693 c -1.943,-1.122 -3.877,-2.24 -5.79,-3.344 1.785,1.157 3.622,2.344 5.483,3.552 l -84.376,56.443 -9.214,-5.32 c -1.351,-0.78 -2.106,-2.195 -2.106,-3.652 0,-0.714 0.181,-1.44 0.566,-2.101 0.553,-0.957 1.461,-1.488 2.439,-1.79 -7.096,-5.659 -16.518,-13.175 -16.518,-13.175 -1.04,-0.829 -1.587,-2.053 -1.587,-3.295 0,-0.821 0.238,-1.647 0.731,-2.372 1.196,-1.753 3.489,-2.277 5.363,-1.334 C 73.683,451.88 59.235,441.516 57.045,439.945 l 7.83,-5.226 c 4.401,2.539 11.686,6.745 14.969,8.64 -3.574,-2.423 -9.037,-6.126 -13.849,-9.389 l 166.42,-111.11 -90.716,-60.564 c 22.376,12.919 51.255,29.591 74.24,42.86 -38.022,-23.264 -98.794,-60.457 -98.794,-60.457 -1.297,-0.793 -2.015,-2.178 -2.015,-3.596 0,-0.731 0.191,-1.473 0.593,-2.148 1.178,-1.982 3.729,-2.647 5.726,-1.496 0,0 71.414,41.23 123.85,71.505 C 194.33,277.76 124.47,234.989 124.47,234.989 c -1.297,-0.795 -2.014,-2.177 -2.014,-3.597 0,-0.733 0.191,-1.475 0.592,-2.15 0.646,-1.084 1.733,-1.654 2.887,-1.867 -0.119,-0.072 -4.87,-2.918 -4.87,-2.918 -1.316,-0.787 -2.048,-2.185 -2.048,-3.618 0,-0.724 0.188,-1.461 0.583,-2.13 1.173,-1.994 3.735,-2.669 5.737,-1.514 0,0 74.716,43.136 132.582,76.545 -53.482,-32.766 -124.63,-76.36 -124.63,-76.36 -1.295,-0.793 -2.013,-2.177 -2.013,-3.596 0,-0.732 0.191,-1.473 0.593,-2.149 1.178,-1.981 3.732,-2.648 5.726,-1.495 0,0 30.484,17.6 36.493,21.07 -3.882,-2.348 -28.611,-17.289 -28.611,-17.289 -1.31,-0.789 -2.035,-2.182 -2.035,-3.608 0,-0.729 0.189,-1.466 0.587,-2.137 1.175,-1.991 3.732,-2.663 5.733,-1.508 0,0 3.695,2.135 3.769,2.176 -0.672,-0.772 -1.146,-1.68 -1.146,-2.686 0,-0.727 0.188,-1.465 0.585,-2.136 1.173,-1.991 3.733,-2.663 5.734,-1.507 0,0 58.245,33.628 89.489,51.667 -26.053,-15.877 -79.29,-48.322 -79.29,-48.322 -1.302,-0.793 -2.021,-2.18 -2.021,-3.602 0,-0.731 0.191,-1.471 0.59,-2.145 0.601,-1.011 1.561,-1.674 2.623,-1.932 l 124.77,83.117 z"
           style="fill:#ffffff;fill-opacity:1;fill-rule:nonzero;stroke:none"
           id="path50274"
           inkscape:connector-curvature="0" /></g></g></g></svg>
